<svg width="597" height="173" viewBox="0 0 597 173" fill="none" xmlns="http://www.w3.org/2000/svg">
<defs>
  <mask id="mark-mask">
    <!-- diamond shape = visible (white) -->
    <rect x="172.371" y="86.1855" width="121.885" height="121.885" rx="31.6905" transform="rotate(135 172.371 86.1855)" fill="white"/>
    <!-- oval eyes = cut out (black punches holes) -->
    <path d="M39.8633 92.5361C34.7794 84.5862 34.7794 71.697 39.8633 63.7471C44.9472 55.7972 53.1898 55.7972 58.2738 63.7471C63.3577 71.697 63.3577 84.5862 58.2738 92.5361C53.1898 100.486 44.9472 100.486 39.8633 92.5361Z" fill="black"/>
    <path d="M114.334 92.5361C109.251 84.5862 109.251 71.697 114.334 63.7471C119.418 55.7972 127.661 55.7972 132.745 63.7471C137.829 71.697 137.829 84.5862 132.745 92.5361C127.661 100.486 119.418 100.486 114.334 92.5361Z" fill="black"/>
  </mask>
</defs>
<!-- Diamond mark: white rect shaped by mask, ovals become transparent holes -->
<g mask="url(#mark-mask)">
  <rect width="597" height="173" fill="white"/>
</g>
<!-- YOINKY wordmark -->
<path d="M218.008 44.832C216.643 44.6613 215.96 43.8933 215.96 42.528C215.96 40.8213 217.155 39.968 219.544 39.968H245.528C247.917 39.968 249.112 40.8213 249.112 42.528C249.112 44.1493 248.003 44.96 245.784 44.96C243.48 44.96 242.328 45.728 242.328 47.264C242.328 48.1173 242.456 48.8427 242.712 49.44C243.053 49.952 244.077 51.7013 245.784 54.688L265.752 87.712C265.923 87.968 266.093 88.1813 266.264 88.352C266.52 88.5227 266.776 88.6507 267.032 88.736C267.288 88.6507 267.501 88.5653 267.672 88.48C267.843 88.3093 268.056 88.0533 268.312 87.712L287.64 54.688C288.835 52.5547 289.645 51.0187 290.072 50.08C290.499 49.1413 290.712 48.3733 290.712 47.776C290.712 45.8987 289.091 44.96 285.848 44.96C283.715 44.96 282.648 44.064 282.648 42.272C282.648 40.736 283.843 39.968 286.232 39.968H303.512C305.901 39.968 307.096 40.8213 307.096 42.528C307.096 43.8933 306.413 44.6613 305.048 44.832L303.896 44.96C302.787 45.1307 301.635 45.8987 300.44 47.264C299.331 48.544 297.752 51.0187 295.704 54.688L271.384 95.776C270.616 97.2267 270.232 98.8907 270.232 100.768V117.28C270.232 118.816 270.232 120.096 270.232 121.12C270.232 122.144 270.445 123.339 270.872 124.704C271.384 125.984 272.707 126.752 274.84 127.008C277.059 127.264 278.168 128.16 278.168 129.696C278.168 131.232 276.973 132 274.584 132H250.648C248.344 132 247.192 131.189 247.192 129.568C247.192 128.117 248.216 127.307 250.264 127.136C252.397 126.88 253.805 126.112 254.488 124.832C255.171 123.552 255.512 121.077 255.512 117.408V101.664L255.256 98.848L253.976 96.672L227.992 54.816C225.603 50.976 223.853 48.416 222.744 47.136C221.635 45.856 220.44 45.1307 219.16 44.96L218.008 44.832ZM291.337 101.792C291.337 93.0027 294.238 85.8347 300.041 80.288C305.844 74.7413 313.268 71.968 322.313 71.968C332.041 71.968 340.233 75.168 346.889 81.568C353.545 87.968 356.873 95.8613 356.873 105.248C356.873 113.867 353.972 120.779 348.169 125.984C342.452 131.189 334.814 133.792 325.257 133.792C315.273 133.792 307.124 130.805 300.809 124.832C294.494 118.859 291.337 111.179 291.337 101.792ZM318.985 76.96C311.305 76.96 306.612 80.928 304.905 88.864C304.564 90.144 304.393 91.5947 304.393 93.216C304.393 103.029 306.697 111.392 311.305 118.304C315.913 125.131 321.502 128.544 328.073 128.544C332.766 128.544 336.436 127.008 339.081 123.936C341.812 120.779 343.177 116.469 343.177 111.008C343.177 102.048 340.745 94.1547 335.881 87.328C331.017 80.416 325.385 76.96 318.985 76.96ZM384.674 74.4V119.84C384.674 122.485 385.058 124.363 385.826 125.472C386.594 126.496 388.173 127.179 390.562 127.52C391.671 127.776 392.397 128.075 392.738 128.416C393.165 128.757 393.378 129.269 393.378 129.952C393.378 131.317 392.354 132 390.306 132H365.986C363.938 132 362.914 131.317 362.914 129.952C362.914 128.757 363.981 127.947 366.114 127.52C368.247 127.093 369.613 126.368 370.21 125.344C370.807 124.235 371.106 122.4 371.106 119.84V117.664V92.448C371.106 88.352 369.911 86.0907 367.522 85.664L366.37 85.408C365.175 84.8107 364.578 84.0853 364.578 83.232C364.578 82.464 365.047 81.824 365.986 81.312L381.986 72.608L382.882 72.352C383.821 72.352 384.418 73.0347 384.674 74.4ZM366.498 60.192L366.242 58.784C366.242 56.3947 367.437 54.2613 369.826 52.384C373.069 49.824 376.397 48.544 379.81 48.544C383.65 48.544 385.57 49.8667 385.57 52.512C385.57 54.9013 384.375 57.0347 381.986 58.912C378.914 61.472 375.543 62.752 371.874 62.752C369.314 62.752 367.522 61.8987 366.498 60.192ZM418.186 74.4V81.824L418.314 82.592L419.21 81.952C422.282 78.2827 425.141 75.7227 427.786 74.272C430.431 72.8213 433.461 72.096 436.874 72.096C439.775 72.096 442.506 72.736 445.066 74.016C447.711 75.2107 449.717 77.0027 451.082 79.392C452.533 81.696 453.599 85.024 454.282 89.376L459.402 119.968C459.829 122.699 460.426 124.576 461.194 125.6C461.962 126.539 463.413 127.179 465.546 127.52C467.338 127.947 468.234 128.757 468.234 129.952C468.234 131.317 467.253 132 465.29 132H442.634C440.671 132 439.69 131.317 439.69 129.952C439.69 129.184 439.818 128.672 440.074 128.416C440.33 128.16 441.354 127.861 443.146 127.52C445.023 127.093 445.962 125.813 445.962 123.68L445.45 119.84L441.738 92.832C440.543 85.2373 437.002 81.44 431.114 81.44C427.359 81.44 424.245 82.8053 421.77 85.536C419.295 88.2667 418.058 91.68 418.058 95.776V119.84C418.058 122.4 418.229 124.064 418.57 124.832C418.997 125.6 419.551 126.197 420.234 126.624C421.002 126.965 422.154 127.349 423.69 127.776C425.311 128.117 426.122 128.843 426.122 129.952C426.122 131.317 425.098 132 423.05 132H400.01C398.047 132 397.066 131.317 397.066 129.952C397.066 128.757 397.962 127.947 399.754 127.52C401.973 127.264 403.423 126.411 404.106 124.96C404.362 124.533 404.533 123.979 404.618 123.296C404.703 122.613 404.746 121.419 404.746 119.712V92.448C404.746 90.0587 404.49 88.3947 403.978 87.456C403.551 86.5173 402.613 85.92 401.162 85.664L400.01 85.408C398.815 84.7253 398.218 84 398.218 83.232C398.218 82.5493 398.687 81.9093 399.626 81.312L415.754 72.608L416.522 72.352C417.631 72.352 418.186 73.0347 418.186 74.4ZM470.084 132C468.036 132 467.012 131.317 467.012 129.952C467.012 128.672 468.164 127.861 470.468 127.52C472.772 127.093 474.308 126.24 475.076 124.96C475.332 124.363 475.545 123.723 475.716 123.04C475.887 122.357 475.972 121.291 475.972 119.84V117.792V58.272C475.972 56.0533 475.716 54.4747 475.204 53.536C474.692 52.5973 473.711 51.9573 472.26 51.616L471.236 51.36C470.041 51.104 469.444 50.4213 469.444 49.312C469.444 48.544 469.828 47.8613 470.596 47.264L486.724 38.56L487.492 38.432C488.431 38.432 489.028 39.072 489.284 40.352V58.272V98.976C489.284 99.4027 489.327 99.744 489.412 100C489.497 100.256 489.625 100.427 489.796 100.512L491.076 99.616L504.388 86.176C505.839 84.7253 506.863 83.616 507.46 82.848C508.143 81.9947 508.484 81.3973 508.484 81.056C508.484 79.8613 507.247 79.0933 504.772 78.752C502.297 78.4107 501.06 77.5573 501.06 76.192C501.06 74.8267 502.084 74.144 504.132 74.144H526.02C528.068 74.144 529.092 74.8267 529.092 76.192C529.092 77.5573 527.727 78.4107 524.996 78.752C522.351 79.0933 520.26 79.648 518.724 80.416C517.273 81.0987 515.353 82.592 512.964 84.896L510.916 87.2C510.404 87.712 510.148 88.352 510.148 89.12L510.532 90.4L526.916 119.84C527.855 121.547 528.537 122.699 528.964 123.296C529.391 123.808 529.945 124.363 530.628 124.96C531.823 126.155 533.7 126.965 536.26 127.392C538.905 127.819 540.228 128.672 540.228 129.952C540.228 131.317 539.204 132 537.156 132H520.388C519.023 132 517.999 131.36 517.316 130.08L500.804 99.616C500.548 99.1893 500.292 98.8907 500.036 98.72C499.865 98.5493 499.737 98.4213 499.652 98.336C499.396 98.4213 499.183 98.5067 499.012 98.592C498.841 98.6773 498.628 98.8907 498.372 99.232L489.284 108.192V119.84C489.284 121.205 489.369 122.272 489.54 123.04C489.711 123.723 489.967 124.363 490.308 124.96C490.991 126.24 492.569 127.093 495.044 127.52C497.519 127.861 498.756 128.672 498.756 129.952C498.756 131.317 497.732 132 495.684 132H470.084ZM537.867 86.048C537.355 85.024 536.843 84.0427 536.331 83.104C535.904 82.1653 535.435 81.44 534.923 80.928C534.496 80.3307 533.942 79.8187 533.259 79.392C532.576 78.9653 531.766 78.624 530.827 78.368C528.95 77.856 528.011 77.0453 528.011 75.936C528.011 74.5707 529.035 73.888 531.083 73.888L553.995 74.016C556.043 74.016 557.067 74.6987 557.067 76.064C557.067 77.1733 556.512 77.856 555.403 78.112L554.123 78.496C552.587 78.8373 551.819 79.648 551.819 80.928C551.819 81.5253 551.904 82.1653 552.075 82.848C552.246 83.4453 552.672 84.512 553.355 86.048L565.259 114.336C565.515 114.677 565.686 114.891 565.771 114.976C565.856 114.976 565.942 114.976 566.027 114.976C566.624 114.72 566.923 114.507 566.923 114.336L578.699 86.048C579.296 84.512 579.68 83.4453 579.851 82.848C580.107 82.1653 580.235 81.568 580.235 81.056C580.235 79.6907 579.382 78.8373 577.675 78.496C576.054 78.1547 575.072 77.856 574.731 77.6C574.475 77.344 574.347 76.7893 574.347 75.936C574.347 74.5707 575.371 73.888 577.419 73.888H593.291C595.339 73.888 596.363 74.5707 596.363 75.936C596.363 77.1307 595.382 77.9413 593.419 78.368C591.456 78.7947 589.963 79.648 588.939 80.928C588.171 81.696 587.19 83.4027 585.995 86.048L561.419 141.728C557.494 150.176 552.331 154.4 545.931 154.4C544.395 154.4 543.2 154.272 542.347 154.016C541.579 153.845 540.683 153.419 539.659 152.736L538.635 151.84L538.251 150.432L535.947 139.168L535.819 137.76C535.819 136.651 536.459 136.096 537.739 136.096C538.848 136.096 539.616 136.907 540.043 138.528C541.92 143.904 544.395 146.592 547.467 146.592C547.979 146.592 548.662 146.421 549.515 146.08C550.368 145.739 551.094 145.355 551.691 144.928C553.227 143.392 554.379 141.813 555.147 140.192C556 138.656 556.683 137.077 557.195 135.456C557.707 133.835 557.963 132.555 557.963 131.616C557.963 130.336 557.579 128.971 556.811 127.52L537.867 86.048Z" fill="white"/>
</svg>
