<svg width="16" height="16" viewBox="0 0 172 172" fill="none" xmlns="http://www.w3.org/2000/svg">
<defs>
  <mask id="m">
    <rect x="172.371" y="86.1855" width="121.885" height="121.885" rx="31.6905" transform="rotate(135 172.371 86.1855)" fill="white"/>
    <path d="M39.8633 92.5361C34.7794 84.5862 34.7794 71.697 39.8633 63.7471C44.9472 55.7972 53.1898 55.7972 58.2738 63.7471C63.3577 71.697 63.3577 84.5862 58.2738 92.5361C53.1898 100.486 44.9472 100.486 39.8633 92.5361Z" fill="black"/>
    <path d="M114.334 92.5361C109.251 84.5862 109.251 71.697 114.334 63.7471C119.418 55.7972 127.661 55.7972 132.745 63.7471C137.829 71.697 137.829 84.5862 132.745 92.5361C127.661 100.486 119.418 100.486 114.334 92.5361Z" fill="black"/>
  </mask>
</defs>
<g mask="url(#m)">
  <rect width="172" height="172" fill="white"/>
</g>
</svg>
